<?xml version="1.0" encoding="iso-8859-1"?>
<!-- Generator: Adobe Illustrator 19.0.0, SVG Export Plug-In . SVG Version: 6.00 Build 0)  -->
<svg version="1.1" id="Layer_1" xmlns="http://www.w3.org/2000/svg" xmlns:xlink="http://www.w3.org/1999/xlink" x="0px" y="0px"
	 viewBox="0 0 491.52 491.52" style="enable-background:new 0 0 491.52 491.52;" xml:space="preserve">
<circle style="fill:#45B39C;" cx="245.76" cy="245.76" r="245.76"/>
<path style="opacity:0.1;enable-background:new    ;" d="M319.334,104.981H172.186c-8.858,0-16.026,7.168-16.026,15.974v27.648
	l-18.893,22.835V182.6c0,5.786,2.304,11.059,6.093,14.95l12.8,12.8v160.205c0,4.045,1.485,7.731,3.994,10.496l-0.051,0.051
	l0.768,0.768l108.516,108.495c116.866-11.152,209.832-104.121,220.98-220.988L330.752,109.794
	C327.885,106.824,323.789,104.981,319.334,104.981z"/>
<path style="fill:#3A556A;" d="M319.326,114.841H172.194c-8.847,0-16.018,7.172-16.018,16.018v239.683
	c0,8.847,7.171,16.018,16.018,16.018h147.131c8.847,0,16.018-7.172,16.018-16.018V130.859
	C335.344,122.012,328.173,114.841,319.326,114.841z"/>
<path style="fill:#64798A;" d="M319.326,104.96H172.194c-8.847,0-16.018,7.172-16.018,16.018v239.683
	c0,8.846,7.171,16.018,16.018,16.018h147.131c8.847,0,16.018-7.172,16.018-16.018V120.978
	C335.344,112.132,328.173,104.96,319.326,104.96z"/>
<rect x="175.923" y="124.723" style="fill:#EBF0F3;" width="139.622" height="212.762"/>
<g>
	<rect x="175.923" y="325.888" style="fill:#3A556A;" width="139.622" height="11.617"/>
	<path style="fill:#3A556A;" d="M245.76,370.161c-7.618,0-13.813-6.195-13.813-13.812c0-7.618,6.195-13.818,13.813-13.818
		c7.618,0,13.813,6.2,13.813,13.818C259.573,363.966,253.378,370.161,245.76,370.161z M245.76,347.471
		c-4.892,0-8.872,3.98-8.872,8.878c0,4.892,3.98,8.872,8.872,8.872c4.892,0,8.872-3.98,8.872-8.872
		C254.632,351.452,250.652,347.471,245.76,347.471z"/>
</g>
<polygon style="fill:#E56353;" points="180.659,171.443 137.258,171.443 175.939,124.722 203.867,124.722 "/>
<polygon style="fill:#FFFFFF;" points="224.06,171.443 180.659,171.443 203.867,124.722 231.796,124.722 "/>
<polygon style="fill:#E56353;" points="267.46,171.443 224.06,171.443 231.796,124.722 259.724,124.722 "/>
<polygon style="fill:#FFFFFF;" points="310.861,171.443 267.46,171.443 259.724,124.722 287.653,124.722 "/>
<polygon style="fill:#E56353;" points="354.261,171.443 310.861,171.443 287.653,124.722 315.581,124.722 "/>
<path style="fill:#D15241;" d="M137.258,171.443v11.167c0,11.918,9.715,21.581,21.7,21.581c11.985,0,21.701-9.662,21.701-21.581
	v-11.167H137.258z"/>
<path style="fill:#E1E6E9;" d="M180.659,171.443v11.167c0,11.918,9.715,21.581,21.7,21.581s21.701-9.662,21.701-21.581v-11.167
	H180.659z"/>
<path style="fill:#D15241;" d="M224.06,171.443v11.167c0,11.918,9.715,21.581,21.7,21.581c11.985,0,21.7-9.662,21.7-21.581v-11.167
	H224.06z"/>
<path style="fill:#E1E6E9;" d="M267.46,171.443v11.167c0,11.918,9.716,21.581,21.701,21.581s21.7-9.662,21.7-21.581v-11.167H267.46z
	"/>
<path style="fill:#D15241;" d="M310.861,171.443v11.167c0,11.918,9.716,21.581,21.701,21.581c11.985,0,21.7-9.662,21.7-21.581
	v-11.167H310.861z"/>
<path style="fill:#3A556A;" d="M292.111,245.678c-1.336-1.696-3.335-2.666-5.49-2.666c-0.012,0-0.023,0-0.035,0l-70.686,0.317
	l0.018,3.585l14.593-0.066v9.61h-11.766v3.586h11.766v10.531h-7.333v3.586h7.333v10.444h3.585V274.16h10.978v10.444h3.585V274.16
	h10.98v10.444h3.586V274.16h10.979v10.444h3.586V274.16h6.366l-2.475,10.013l3.48,0.862l8.244-33.358
	C293.924,249.569,293.454,247.383,292.111,245.678z M286.603,246.597c1.073,0.07,2.036,0.469,2.691,1.299
	c0.653,0.83,0.882,1.896,0.63,2.922l-1.394,5.64h-10.741v-9.822L286.603,246.597z M263.224,246.702l10.979-0.049v9.805h-10.979
	V246.702z M259.639,256.458h-10.98v-9.691l10.98-0.05V256.458z M234.096,246.832l10.978-0.049v9.675h-10.978V246.832z
	 M234.096,270.575v-10.531h10.978v10.531H234.096z M248.659,270.575v-10.531h10.98v10.531H248.659z M263.224,270.575v-10.531h10.979
	v10.531H263.224z M277.789,270.575v-10.531h9.855l-2.602,10.531H277.789z"/>
<path style="fill:#64798A;" d="M284.774,303.376H225.08v-3.585h59.694c3.694,0,6.698-3.004,6.698-6.696
	c0-3.694-3.004-6.698-6.698-6.698h-54.32c-3.114,0-5.854-2.101-6.664-5.108l-12.988-48.255c-0.328-1.217-1.437-2.067-2.698-2.067
	h-1.4v-3.586h1.4c2.878,0,5.411,1.942,6.16,4.722l12.988,48.255c0.389,1.444,1.705,2.454,3.202,2.454h54.32
	c5.67,0,10.283,4.613,10.283,10.284C295.057,298.763,290.444,303.376,284.774,303.376z"/>
<path style="fill:#E56353;" d="M199.152,226.484c-1.485,0-2.688,1.204-2.688,2.689c0,1.485,1.204,2.689,2.688,2.689h7.553v-5.378
	H199.152z"/>
<circle style="fill:#2F4859;" cx="235.284" cy="312.525" r="6.205"/>
<circle style="fill:#3A556A;" cx="235.284" cy="312.525" r="4.076"/>
<circle style="fill:#EBF0F3;" cx="235.284" cy="312.525" r="1.587"/>
<circle style="fill:#2F4859;" cx="281.856" cy="312.525" r="6.205"/>
<circle style="fill:#3A556A;" cx="281.856" cy="312.525" r="4.076"/>
<circle style="fill:#EBF0F3;" cx="281.856" cy="312.525" r="1.587"/>
<g>
</g>
<g>
</g>
<g>
</g>
<g>
</g>
<g>
</g>
<g>
</g>
<g>
</g>
<g>
</g>
<g>
</g>
<g>
</g>
<g>
</g>
<g>
</g>
<g>
</g>
<g>
</g>
<g>
</g>
</svg>
